<svg width="12" height="17" viewBox="0 0 12 17" fill="none" xmlns="http://www.w3.org/2000/svg">
<path d="M11.7001 16.7C12.0901 16.31 12.0901 15.68 11.7001 15.29L9.00006 12.59L7.59006 14L10.2901 16.7C10.6801 17.09 11.3201 17.09 11.7001 16.7ZM2.71006 5H5.00006V10.59L0.290059 15.29C-0.0999414 15.68 -0.0999414 16.31 0.290059 16.7C0.680059 17.09 1.31006 17.09 1.70006 16.7L6.41006 12C6.79006 11.62 7.00006 11.12 7.00006 10.59V5H9.29006C9.74006 5 9.96006 4.46 9.64006 4.15L6.35006 0.859999C6.15006 0.659999 5.84006 0.659999 5.64006 0.859999L2.35006 4.15C2.04006 4.46 2.26006 5 2.71006 5Z" fill="#3D4ED7"/>
</svg>
